<svg id="Layer_1" data-name="Layer 1" xmlns="http://www.w3.org/2000/svg" viewBox="0 0 447.97 108.51"><title>more</title><path d="M63.91,120.53A54.22,54.22,0,1,1,64.82,12.1c30,.29,54.23,24.88,53.9,54.67A54.4,54.4,0,0,1,63.91,120.53ZM96.06,66.19A31.86,31.86,0,1,0,64.24,98.32,31.85,31.85,0,0,0,96.06,66.19Z" transform="translate(-9.85 -12.06)"/><path d="M403.29,120.56a54.25,54.25,0,1,1,54.53-54A54.46,54.46,0,0,1,403.29,120.56Zm-.57-22.24a32,32,0,1,0-31.08-32.85C371.3,83.39,385.1,98,402.72,98.32Z" transform="translate(-9.85 -12.06)"/><path d="M179.61,66.2a54.23,54.23,0,1,1,54.12,54.34A53.93,53.93,0,0,1,179.61,66.2Zm54-31.9a32,32,0,1,0,32.2,32A32.16,32.16,0,0,0,233.65,34.3Z" transform="translate(-9.85 -12.06)"/></svg>